<?xml version="1.0" standalone="no"?>
<!DOCTYPE svg PUBLIC "-//W3C//DTD SVG 20010904//EN"
        "http://www.w3.org/TR/2001/REC-SVG-20010904/DTD/svg10.dtd">
<svg version="1.0" xmlns="http://www.w3.org/2000/svg"
     width="400.000000pt" height="400.000000pt" viewBox="0 0 400.000000 400.000000"
     preserveAspectRatio="xMidYMid meet">
    <metadata>
        Created by potrace 1.14, written by Peter Selinger 2001-2017
    </metadata>
    <g transform="translate(0.000000,400.000000) scale(0.100000,-0.100000)"
       fill="#000000" stroke="none">
        <path d="M1765 3446 c-525 -100 -928 -451 -1094 -951 -53 -161 -71 -276 -71
-455 0 -179 18 -294 71 -455 157 -473 530 -816 1019 -936 84 -21 119 -24 305
-24 186 0 221 3 305 24 489 120 862 463 1019 936 53 161 71 276 71 455 0 179
-18 294 -71 455 -154 464 -514 802 -989 927 -105 28 -132 31 -305 34 -130 2
-212 -1 -260 -10z m456 -166 c438 -90 794 -406 938 -835 83 -248 83 -572 0
-820 -144 -429 -500 -745 -938 -835 -136 -27 -336 -27 -472 0 -438 90 -794
406 -938 835 -83 248 -83 572 0 820 143 427 497 743 934 835 128 27 344 27
476 0z"/>
        <path d="M1671 2990 c-18 -8 -22 -15 -17 -33 3 -12 61 -177 129 -366 107 -299
127 -345 148 -353 25 -10 134 -6 145 5 13 13 253 693 254 719 0 21 -6 28 -29
33 -16 3 -45 3 -64 0 l-35 -7 -98 -286 c-53 -158 -100 -290 -103 -294 -4 -4
-51 123 -106 283 -55 160 -102 292 -106 295 -17 10 -96 13 -118 4z"/>
        <path d="M1917 2118 c-19 -14 -377 -996 -377 -1033 0 -13 7 -26 16 -29 30 -12
102 -6 117 9 9 8 34 71 57 140 l42 125 218 0 c198 0 218 -2 225 -17 4 -10 23
-63 42 -118 49 -143 51 -145 122 -145 39 0 63 5 71 15 10 12 -22 110 -171 522
-100 279 -189 516 -197 526 -18 21 -138 24 -165 5z m162 -406 c44 -128 81
-237 81 -243 0 -5 -72 -9 -173 -9 l-174 0 86 249 c47 138 89 247 92 243 4 -4
43 -112 88 -240z"/>
    </g>
</svg>
